<svg width="60" height="30" viewBox="0 0 60 30" fill="none" xmlns="http://www.w3.org/2000/svg">
<path d="M29.9529 29.9899C28.9533 29.9918 27.9846 29.6433 27.2149 29.0047L1.54552 7.58716C0.671834 6.86009 0.122405 5.81529 0.0181033 4.68262C-0.0861987 3.54995 0.263169 2.42218 0.989349 1.54742C1.71553 0.67266 2.75904 0.122556 3.89031 0.0181257C5.02159 -0.0863049 6.14796 0.263492 7.02165 0.990567L29.9529 20.1807L52.8842 1.67593C53.3218 1.32012 53.8254 1.0544 54.3659 0.894066C54.9064 0.733727 55.4732 0.681923 56.0338 0.741631C56.5944 0.80134 57.1376 0.971381 57.6323 1.24199C58.1271 1.51259 58.5635 1.87842 58.9165 2.31845C59.3083 2.75889 59.6051 3.27559 59.7881 3.83619C59.9712 4.39679 60.0367 4.9892 59.9805 5.57631C59.9242 6.16342 59.7475 6.73258 59.4614 7.24813C59.1752 7.76367 58.7858 8.2145 58.3176 8.57236L32.6482 29.2617C31.8564 29.7993 30.9074 30.0557 29.9529 29.9899Z" fill="#915B65"/>
</svg>
