<svg width="265" height="59" fill="none" xmlns="http://www.w3.org/2000/svg"><g clip-path="url(#a)"><path d="M76.575 2.338V0H60.166v2.338h7.926L56.036 44.417 44.54 2.337h7.144V0H30.697v2.338h6.474L25.227 44.417 13.73 2.337h7.144V0H0v2.338h5.246L20.762 59h2.68l14.51-50.874.336-1.892L51.57 59h2.568L70.436 2.338h6.14Zm6.028 11.911s-.111 0 0 0c-8.483 0-13.506 5.232-13.506 15.028v8.35c0 9.684 5.023 15.028 13.506 15.028 8.484 0 13.395-5.232 13.507-15.029v-8.349c-.112-9.684-5.023-15.028-13.507-15.028Zm6.81 27.608c0 8.015-2.233 9.24-6.921 9.24-4.577 0-6.921-1.225-6.921-9.018V24.936c0-7.904 2.344-9.017 6.92-9.017 4.689 0 6.921 1.224 6.921 9.24v16.698Zm69.654-28.276h-2.121l-11.497 36.736h-3.572v1.559h10.827v-1.559h-5.134l3.572-11.132h9.823l3.125 11.132h-4.13v1.559h13.06v-1.559h-3.572l-10.381-36.736Zm-7.591 24.045 4.577-14.583h.335l4.018 14.583h-8.93Zm-15.292 12.58V15.919h3.572V14.36h-10.047l-10.604 29.723-10.046-29.723h-9.935v1.559h3.46v34.287h-3.349v1.558h10.493v-1.558h-4.911V17.7l11.832 35.289h1.675l12.39-34.955v32.172h-3.795v1.558h13.283v-1.558h-4.018c.223-4.008 0 0 0 0Zm57.041-34.287h5.358v24.713L182.955 14.36h-9.153v1.559h3.237v34.287h-3.237v1.558h10.381v-1.558h-5.47V19.147l19.87 33.396v-.11.11h1.674V15.807h3.572V14.25h-10.604v1.67Zm14.623 25.604c-2.01 0-3.573 1.78-3.573 4.007 0 2.227 1.563 4.008 3.573 4.008 2.009 0 3.572-1.781 3.572-4.008 0-2.226-1.675-4.007-3.572-4.007Zm25.785-20.26c0-.112-.112-.112-.112-.223-.223-.223-.334-.446-.558-.557-.446-.334-1.228-.557-2.232-.557-2.679 0-4.019 1.336-5.135 3.117-.781 1.225-1.563 2.783-2.121 3.674 0-.557-.111-1.558-.781-3.117-.782-2.115-1.563-2.894-1.675-2.894h-6.362v1.558h4.018v24.713h-4.018v1.559h14.511v-1.559h-5.804V29.945c.669-1.558 1.562-3.562 3.013-5.677 1.452-1.781 2.233-2.338 3.014-2.338.335 0 .335 1.67.335 2.45v.444c0 3.563 1.116 4.565 2.344 4.565 1.34 0 2.344-.89 2.344-4.564.224-1.336-.111-2.672-.781-3.563.112 0 0 0 0 0Zm28.13 25.826c-.67 0-.782-.78-.782-.78V20.706h-4.799v21.04c-.112.11-3.126 6.01-7.479 6.01-2.233 0-2.903-1.224-2.903-2.56v-24.49h-8.93v1.558h4.242v20.483s-.223 6.568 7.032 6.568c4.912 0 7.591-4.453 8.149-5.232v.111c-.111 2.56.782 4.23 2.121 4.23h6.698v-1.558l-3.349.223Z" fill="#915B65"/></g><defs><clipPath id="a"><path fill="#fff" d="M0 0h265v59H0z"/></clipPath></defs></svg>