<svg width="11" height="18" fill="none" xmlns="http://www.w3.org/2000/svg"><path d="M5.237 8.8c2.4 0 4.4-2 4.4-4.4 0-2.4-2-4.4-4.4-4.4-2.4 0-4.4 2-4.4 4.4 0 2.4 2 4.4 4.4 4.4Zm0-6.6c1.2 0 2.2 1 2.2 2.2 0 1.2-1 2.2-2.2 2.2-1.2 0-2.2-1-2.2-2.2 0-1.2 1-2.2 2.2-2.2Zm5.1 7.2c-.2-.5-.9-.9-1.9-.2-1.2 1-3.2 1-3.2 1s-2 0-3.2-1c-.9-.7-1.6-.3-1.9.2-.4.9.1 1.3 1.2 2 .9.6 2.2.8 3.1.9l-.7.7-2.6 2.6c-.4.4-.4 1 0 1.4l.1.1c.4.4 1 .4 1.4 0l2.6-2.6 2.6 2.6c.4.4 1 .4 1.4 0l.1-.1c.4-.4.4-1 0-1.4l-2.6-2.6-.7-.7c.8-.1 2.1-.3 3.1-.9 1.2-.7 1.7-1.2 1.2-2Z" fill="#fff"/></svg>