<svg width="13" height="13" fill="none" xmlns="http://www.w3.org/2000/svg"><path d="M11.3 6.9c-.5-.5-.9-.9-1.9-1v-.1c.7-.3 1.2-.6 1.5-1.1.4-.5.5-1 .5-1.7 0-.5-.1-1-.4-1.4-.3-.4-.7-.8-1.2-1-.5-.2-1-.4-1.6-.5C7.7 0 6.5 0 5.3 0H0v12.9h6.2c1 0 1.9-.1 2.6-.2.7-.2 1.3-.4 1.8-.8.5-.3.9-.7 1.1-1.2.3-.5.4-1 .4-1.7 0-.9-.3-1.6-.8-2.1ZM3.8 2.5h1.6c.5 0 1 .1 1.4.2.4.2.6.5.6 1.1 0 .5-.2.8-.5 1-.3.2-.7.3-1.2.3H3.8V2.5Zm3.3 7.6c-.3.1-.7.2-1.2.2H3.8V7.2H6c.5 0 .9.1 1.1.2.5.2.7.6.7 1.2.1.8-.2 1.3-.7 1.5Z" fill="#fff"/></svg>